<mxfile host="app.diagrams.net" modified="2024-01-29T05:06:10.085Z" agent="Mozilla/5.0 (Windows NT 10.0; Win64; x64) AppleWebKit/537.36 (KHTML, like Gecko) Chrome/121.0.0.0 Safari/537.36 Edg/121.0.0.0" etag="Y9fA-TsDRu3_rkzlxEX2" version="23.0.2" type="github">
  <diagram name="Página-1" id="MWA3o653Q3X33GRcxTDq">
    <mxGraphModel dx="1753" dy="1102" grid="1" gridSize="10" guides="1" tooltips="1" connect="1" arrows="1" fold="1" page="1" pageScale="1" pageWidth="827" pageHeight="1169" math="0" shadow="0">
      <root>
        <mxCell id="0" />
        <mxCell id="1" parent="0" />
        <mxCell id="NllVmjfBrC0JXdJKwBuS-1" value="DP" style="rounded=0;whiteSpace=wrap;html=1;" vertex="1" parent="1">
          <mxGeometry x="130" y="370" width="120" height="60" as="geometry" />
        </mxCell>
        <mxCell id="NllVmjfBrC0JXdJKwBuS-2" value="Endereço" style="ellipse;whiteSpace=wrap;html=1;" vertex="1" parent="1">
          <mxGeometry x="100" y="310" width="70" height="30" as="geometry" />
        </mxCell>
        <mxCell id="NllVmjfBrC0JXdJKwBuS-3" value="Nome" style="ellipse;whiteSpace=wrap;html=1;" vertex="1" parent="1">
          <mxGeometry x="180" y="310" width="80" height="30" as="geometry" />
        </mxCell>
        <mxCell id="NllVmjfBrC0JXdJKwBuS-4" value="Código DP" style="ellipse;whiteSpace=wrap;html=1;" vertex="1" parent="1">
          <mxGeometry x="20" y="330" width="80" height="40" as="geometry" />
        </mxCell>
      </root>
    </mxGraphModel>
  </diagram>
</mxfile>
